<svg width="1024" height="1024" viewBox="0 0 1024 1024" fill="none" xmlns="http://www.w3.org/2000/svg">
<path fill-rule="evenodd" clip-rule="evenodd" d="M418.469 617.05C403.396 701.181 322.969 757.165 238.829 742.094C154.69 727.023 98.7003 646.604 113.773 562.473C128.846 478.342 209.273 422.357 293.412 437.429C377.552 452.5 433.542 532.919 418.469 617.05ZM281.356 592.49C279.848 600.903 271.806 606.502 263.392 604.995C254.978 603.488 249.379 595.446 250.886 587.033C252.393 578.619 260.436 573.021 268.85 574.528C277.264 576.035 282.863 584.077 281.356 592.49ZM275.4 537.968C288.862 540.38 301.731 531.422 304.142 517.961C306.554 504.5 297.596 491.633 284.133 489.222C270.671 486.81 257.803 495.768 255.391 509.229C252.979 522.69 261.938 535.557 275.4 537.968ZM222.361 557.554C219.95 571.015 207.081 579.972 193.619 577.561C180.157 575.149 171.198 562.282 173.61 548.821C176.022 535.36 188.89 526.403 202.352 528.814C215.815 531.226 224.773 544.093 222.361 557.554ZM206.208 667.467C219.67 669.878 232.538 660.92 234.95 647.459C237.362 633.999 228.403 621.131 214.941 618.72C201.479 616.309 188.61 625.266 186.199 638.727C183.787 652.188 192.745 665.055 206.208 667.467ZM324.073 663.423C321.662 676.884 308.793 685.842 295.331 683.43C281.869 681.019 272.911 668.152 275.322 654.691C277.734 641.23 290.602 632.273 304.064 634.684C317.527 637.095 326.485 649.962 324.073 663.423ZM338.35 603.485C351.812 605.897 364.68 596.939 367.092 583.478C369.504 570.017 360.545 557.15 347.083 554.739C333.621 552.327 320.752 561.285 318.341 574.746C315.929 588.207 324.887 601.074 338.35 603.485Z" fill="white"/>
<path fill-rule="evenodd" clip-rule="evenodd" d="M896.215 596.291C849.869 715.828 715.385 775.165 595.836 728.824C476.287 682.483 416.944 548.012 463.29 428.475C509.636 308.938 644.12 249.601 763.669 295.942C883.218 342.283 942.561 476.754 896.215 596.291ZM701.399 520.774C696.764 532.727 683.316 538.661 671.361 534.027C659.406 529.393 653.472 515.946 658.106 503.992C662.741 492.038 676.189 486.105 688.144 490.739C700.099 495.373 706.033 508.82 701.399 520.774ZM708.284 438.793C727.412 446.208 748.929 436.714 756.345 417.588C763.76 398.462 754.265 376.946 735.137 369.532C716.01 362.117 694.492 371.611 687.077 390.737C679.661 409.863 689.156 431.378 708.284 438.793ZM624.574 452.403C617.158 471.529 595.641 481.023 576.513 473.609C557.385 466.194 547.89 444.679 555.306 425.553C562.721 406.427 584.239 396.933 603.366 404.348C622.494 411.762 631.989 433.278 624.574 452.403ZM569.234 609.588C588.362 617.002 609.879 607.508 617.295 588.383C624.71 569.257 615.215 547.741 596.087 540.327C576.959 532.912 555.442 542.406 548.027 561.532C540.611 580.658 550.106 602.173 569.234 609.588ZM743.925 637.469C736.51 656.595 714.993 666.089 695.865 658.674C676.737 651.26 667.242 629.744 674.657 610.618C682.073 591.492 703.59 581.998 722.718 589.413C741.846 596.828 751.341 618.343 743.925 637.469ZM782.153 553.322C801.281 560.736 822.798 551.242 830.213 532.116C837.629 512.99 828.134 491.475 809.006 484.06C789.878 476.646 768.361 486.14 760.945 505.266C753.53 524.392 763.025 545.907 782.153 553.322Z" fill="white"/>
</svg>
